<?xml version="1.0" encoding="UTF-8" standalone="no"?>
<!-- Created with Inkscape (http://www.inkscape.org/) -->

<svg
   width="500"
   height="500"
   viewBox="0 0 132.29166 132.29167"
   version="1.1"
   id="svg1"
   inkscape:version="1.4.2 (ebf0e940d0, 2025-05-08)"
   sodipodi:docname="expanddark.svg"
   xmlns:inkscape="http://www.inkscape.org/namespaces/inkscape"
   xmlns:sodipodi="http://sodipodi.sourceforge.net/DTD/sodipodi-0.dtd"
   xmlns="http://www.w3.org/2000/svg"
   xmlns:svg="http://www.w3.org/2000/svg">
  <sodipodi:namedview
     id="namedview1"
     pagecolor="#ffffff"
     bordercolor="#000000"
     borderopacity="0.25"
     inkscape:showpageshadow="2"
     inkscape:pageopacity="0.0"
     inkscape:pagecheckerboard="0"
     inkscape:deskcolor="#d1d1d1"
     inkscape:document-units="mm"
     inkscape:zoom="0.97459315"
     inkscape:cx="74.90305"
     inkscape:cy="125.18044"
     inkscape:window-width="2560"
     inkscape:window-height="1305"
     inkscape:window-x="0"
     inkscape:window-y="0"
     inkscape:window-maximized="1"
     inkscape:current-layer="layer1" />
  <defs
     id="defs1" />
  <g
     inkscape:label="Layer 1"
     inkscape:groupmode="layer"
     id="layer1">
    <rect
       style="fill:#b3b3b3;fill-opacity:1;stroke-width:7.09952"
       id="rect3"
       width="15.875"
       height="74.928703"
       x="52.124313"
       y="34.340115"
       ry="7.9375" />
    <rect
       style="fill:#b3b3b3;fill-opacity:1;stroke-width:7.9375"
       id="rect4"
       width="46.966179"
       height="15.875"
       x="20.077351"
       y="34.214787"
       ry="7.9375" />
    <rect
       style="fill:#b3b3b3;fill-opacity:1;stroke-width:7.9375"
       id="rect5"
       width="46.966179"
       height="15.875"
       x="20.461283"
       y="93.522934"
       ry="7.9375" />
    <rect
       style="fill:#7f7f7f;fill-opacity:1;stroke-width:7.09952"
       id="rect6"
       width="15.875"
       height="74.928703"
       x="55.382084"
       y="31.082344"
       ry="7.9375" />
    <rect
       style="fill:#7f7f7f;fill-opacity:1;stroke-width:7.9375"
       id="rect7"
       width="46.966179"
       height="15.875"
       x="23.335121"
       y="30.957018"
       ry="7.9375" />
    <rect
       style="fill:#7f7f7f;fill-opacity:1;stroke-width:7.9375"
       id="rect8"
       width="46.966179"
       height="15.875"
       x="23.719053"
       y="90.265167"
       ry="7.9375" />
    <rect
       style="fill:#4d4d4d;fill-opacity:1;stroke-width:7.09952"
       id="rect9"
       width="15.875"
       height="74.928703"
       x="59.997257"
       y="27.010132"
       ry="7.9375" />
    <rect
       style="fill:#4d4d4d;fill-opacity:1;stroke-width:7.9375"
       id="rect10"
       width="46.966179"
       height="15.875"
       x="27.950294"
       y="26.884806"
       ry="7.9375" />
    <rect
       style="fill:#4d4d4d;fill-opacity:1;stroke-width:7.9375"
       id="rect11"
       width="46.966179"
       height="15.875"
       x="28.334227"
       y="86.192955"
       ry="7.9375" />
    <rect
       style="fill:#4d4d4d;fill-opacity:1;stroke-width:5.33489"
       id="rect13"
       width="22.408104"
       height="7.3992152"
       x="80.828293"
       y="65.398666"
       ry="2.9234836" />
    <rect
       style="fill:#4d4d4d;fill-opacity:1;stroke-width:4.91202"
       id="rect15"
       width="19.720066"
       height="7.1277342"
       x="10.489035"
       y="121.0043"
       ry="2.8162196"
       transform="rotate(-45)" />
    <rect
       style="fill:#4d4d4d;fill-opacity:1;stroke-width:4.91202"
       id="rect16"
       width="19.720066"
       height="7.1277342"
       x="108.15603"
       y="-30.465029"
       ry="2.8162196"
       transform="rotate(45)" />
    <path
       d="m 102.48776,80.471574 0.72347,0.72347 c 1.10322,1.103218 2.87949,1.103218 3.9827,0 l 9.96115,-9.961666 c 0.59788,-0.597873 0.8718,-1.393503 0.82166,-2.172477 -0.0424,0.658458 -0.31628,1.305368 -0.82166,1.810742 l -1.0573,1.0573 c -1.10321,1.103218 -2.87948,1.103218 -3.9827,0 l -0.54209,-0.542602 z"
       style="fill:#7f7f7f;stroke-width:4.91202;fill-opacity:1"
       id="path24" />
    <path
       d="m 111.49355,66.689504 0.15674,0.15671 c 0.61246,0.612465 0.89258,1.427688 0.84124,2.225675 0.0516,0.798077 -0.22871,1.613148 -0.84124,2.225682 l -0.15674,0.156711 0.55537,0.555887 c 1.13023,1.130237 2.95002,1.130237 4.08024,0 l 1.08315,-1.083192 c 0.51777,-0.517748 0.79839,-1.180501 0.84185,-1.855088 -0.0437,-0.674541 -0.32411,-1.336831 -0.84185,-1.854554 l -1.08315,-1.083195 c -1.13022,-1.13023 -2.95001,-1.13023 -4.08024,0 z"
       style="fill:#7f7f7f;stroke-width:5.03234;fill-opacity:1"
       id="path23" />
    <path
       d="m 102.48776,57.650745 9.08523,9.084717 0.54209,-0.542086 c 1.10322,-1.103218 2.87949,-1.103218 3.9827,0 l 1.0573,1.0573 c 0.50535,0.505345 0.77927,1.151807 0.82166,1.810225 0.0501,-0.778937 -0.22381,-1.574633 -0.82166,-2.172477 l -9.96115,-9.961149 c -1.10321,-1.103218 -2.87948,-1.103218 -3.9827,0 z"
       style="fill:#7f7f7f;stroke-width:4.91202;fill-opacity:1"
       id="path22" />
    <path
       d="m 109.54626,80.471574 0.72347,0.72347 c 1.10322,1.103218 2.87949,1.103218 3.9827,0 l 9.96115,-9.961666 c 0.59788,-0.597873 0.8718,-1.393503 0.82166,-2.172477 -0.0424,0.658458 -0.31628,1.305368 -0.82166,1.810742 l -1.0573,1.0573 c -1.10321,1.103218 -2.87948,1.103218 -3.9827,0 l -0.54209,-0.542602 z"
       style="fill:#b3b3b3;fill-opacity:1;stroke-width:4.91202"
       id="path25" />
    <path
       d="m 118.55205,66.689504 0.15674,0.15671 c 0.61246,0.612465 0.89258,1.427688 0.84124,2.225675 0.0516,0.798077 -0.22871,1.613148 -0.84124,2.225682 l -0.15674,0.156711 0.55537,0.555887 c 1.13023,1.130237 2.95002,1.130237 4.08024,0 l 1.08315,-1.083192 c 0.51777,-0.517748 0.79839,-1.180501 0.84185,-1.855088 -0.0437,-0.674541 -0.32411,-1.336831 -0.84185,-1.854554 l -1.08315,-1.083195 c -1.13022,-1.13023 -2.95001,-1.13023 -4.08024,0 z"
       style="fill:#b3b3b3;fill-opacity:1;stroke-width:5.03234"
       id="path26" />
    <path
       d="m 109.54626,57.650745 9.08523,9.084717 0.54209,-0.542086 c 1.10322,-1.103218 2.87949,-1.103218 3.9827,0 l 1.0573,1.0573 c 0.50535,0.505345 0.77927,1.151807 0.82166,1.810225 0.0501,-0.778937 -0.22381,-1.574633 -0.82166,-2.172477 l -9.96115,-9.961149 c -1.10321,-1.103218 -2.87948,-1.103218 -3.9827,0 z"
       style="fill:#b3b3b3;fill-opacity:1;stroke-width:4.91202"
       id="path27" />
  </g>
</svg>
